<mxfile host="app.diagrams.net" modified="2022-05-24T02:18:21.049Z" agent="5.0 (Macintosh; Intel Mac OS X 10_15_7) AppleWebKit/537.36 (KHTML, like Gecko) Chrome/101.0.4951.64 Safari/537.36" etag="ZjRpWf7KAZIAuR39-X34" version="17.5.0" type="github">
  <diagram id="R2lEEEUBdFMjLlhIrx00" name="ER">
    <mxGraphModel dx="1175" dy="756" grid="1" gridSize="10" guides="1" tooltips="1" connect="1" arrows="1" fold="1" page="1" pageScale="1" pageWidth="850" pageHeight="1100" math="0" shadow="0" extFonts="Permanent Marker^https://fonts.googleapis.com/css?family=Permanent+Marker">
      <root>
        <mxCell id="0" />
        <mxCell id="1" parent="0" />
        <mxCell id="bclAgqdTE26W3hW6iXd6-1" value="Customers" style="rounded=0;whiteSpace=wrap;html=1;" vertex="1" parent="1">
          <mxGeometry x="240" y="200" width="80" height="40" as="geometry" />
        </mxCell>
        <mxCell id="bclAgqdTE26W3hW6iXd6-3" value="Orders" style="rhombus;whiteSpace=wrap;html=1;" vertex="1" parent="1">
          <mxGeometry x="360" y="200" width="80" height="40" as="geometry" />
        </mxCell>
        <mxCell id="bclAgqdTE26W3hW6iXd6-4" value="Products" style="rounded=0;whiteSpace=wrap;html=1;" vertex="1" parent="1">
          <mxGeometry x="480" y="200" width="80" height="40" as="geometry" />
        </mxCell>
        <mxCell id="bclAgqdTE26W3hW6iXd6-6" value="" style="endArrow=none;html=1;rounded=0;exitX=1;exitY=0.5;exitDx=0;exitDy=0;entryX=0;entryY=0.5;entryDx=0;entryDy=0;" edge="1" parent="1" source="bclAgqdTE26W3hW6iXd6-3" target="bclAgqdTE26W3hW6iXd6-4">
          <mxGeometry width="50" height="50" relative="1" as="geometry">
            <mxPoint x="400" y="150" as="sourcePoint" />
            <mxPoint x="450" y="100" as="targetPoint" />
          </mxGeometry>
        </mxCell>
        <mxCell id="bclAgqdTE26W3hW6iXd6-8" value="Customer ID" style="ellipse;whiteSpace=wrap;html=1;" vertex="1" parent="1">
          <mxGeometry x="120" y="170" width="80" height="40" as="geometry" />
        </mxCell>
        <mxCell id="bclAgqdTE26W3hW6iXd6-12" value="name" style="ellipse;whiteSpace=wrap;html=1;" vertex="1" parent="1">
          <mxGeometry x="120" y="230" width="80" height="40" as="geometry" />
        </mxCell>
        <mxCell id="bclAgqdTE26W3hW6iXd6-16" value="" style="endArrow=none;html=1;rounded=0;entryX=0;entryY=0.5;entryDx=0;entryDy=0;exitX=1;exitY=1;exitDx=0;exitDy=0;" edge="1" parent="1" source="bclAgqdTE26W3hW6iXd6-8" target="bclAgqdTE26W3hW6iXd6-1">
          <mxGeometry width="50" height="50" relative="1" as="geometry">
            <mxPoint x="400" y="430" as="sourcePoint" />
            <mxPoint x="450" y="380" as="targetPoint" />
          </mxGeometry>
        </mxCell>
        <mxCell id="bclAgqdTE26W3hW6iXd6-19" value="" style="endArrow=none;html=1;rounded=0;exitX=1;exitY=0;exitDx=0;exitDy=0;entryX=0;entryY=0.5;entryDx=0;entryDy=0;" edge="1" parent="1" source="bclAgqdTE26W3hW6iXd6-12" target="bclAgqdTE26W3hW6iXd6-1">
          <mxGeometry width="50" height="50" relative="1" as="geometry">
            <mxPoint x="400" y="430" as="sourcePoint" />
            <mxPoint x="240" y="220" as="targetPoint" />
          </mxGeometry>
        </mxCell>
        <mxCell id="bclAgqdTE26W3hW6iXd6-20" value="Product ID" style="ellipse;whiteSpace=wrap;html=1;" vertex="1" parent="1">
          <mxGeometry x="600" y="110" width="80" height="40" as="geometry" />
        </mxCell>
        <mxCell id="bclAgqdTE26W3hW6iXd6-21" value="name" style="ellipse;whiteSpace=wrap;html=1;" vertex="1" parent="1">
          <mxGeometry x="600" y="170" width="80" height="40" as="geometry" />
        </mxCell>
        <mxCell id="bclAgqdTE26W3hW6iXd6-22" value="price" style="ellipse;whiteSpace=wrap;html=1;" vertex="1" parent="1">
          <mxGeometry x="600" y="230" width="80" height="40" as="geometry" />
        </mxCell>
        <mxCell id="bclAgqdTE26W3hW6iXd6-23" value="" style="endArrow=none;html=1;rounded=0;entryX=0;entryY=1;entryDx=0;entryDy=0;exitX=1;exitY=0.5;exitDx=0;exitDy=0;" edge="1" parent="1" source="bclAgqdTE26W3hW6iXd6-4" target="bclAgqdTE26W3hW6iXd6-20">
          <mxGeometry width="50" height="50" relative="1" as="geometry">
            <mxPoint x="400" y="430" as="sourcePoint" />
            <mxPoint x="450" y="380" as="targetPoint" />
          </mxGeometry>
        </mxCell>
        <mxCell id="bclAgqdTE26W3hW6iXd6-24" value="" style="endArrow=none;html=1;rounded=0;entryX=0;entryY=0.5;entryDx=0;entryDy=0;exitX=1;exitY=0.5;exitDx=0;exitDy=0;" edge="1" parent="1" source="bclAgqdTE26W3hW6iXd6-4" target="bclAgqdTE26W3hW6iXd6-21">
          <mxGeometry width="50" height="50" relative="1" as="geometry">
            <mxPoint x="570" y="230" as="sourcePoint" />
            <mxPoint x="621.7157287525379" y="194.14213562373106" as="targetPoint" />
          </mxGeometry>
        </mxCell>
        <mxCell id="bclAgqdTE26W3hW6iXd6-25" value="" style="endArrow=none;html=1;rounded=0;entryX=0;entryY=0.5;entryDx=0;entryDy=0;exitX=1;exitY=0.5;exitDx=0;exitDy=0;" edge="1" parent="1" source="bclAgqdTE26W3hW6iXd6-4" target="bclAgqdTE26W3hW6iXd6-22">
          <mxGeometry width="50" height="50" relative="1" as="geometry">
            <mxPoint x="570" y="230" as="sourcePoint" />
            <mxPoint x="610" y="230" as="targetPoint" />
          </mxGeometry>
        </mxCell>
        <mxCell id="bclAgqdTE26W3hW6iXd6-26" value="date" style="ellipse;whiteSpace=wrap;html=1;" vertex="1" parent="1">
          <mxGeometry x="310" y="80" width="80" height="40" as="geometry" />
        </mxCell>
        <mxCell id="bclAgqdTE26W3hW6iXd6-27" value="Customer ID" style="ellipse;whiteSpace=wrap;html=1;" vertex="1" parent="1">
          <mxGeometry x="510" y="80" width="80" height="40" as="geometry" />
        </mxCell>
        <mxCell id="bclAgqdTE26W3hW6iXd6-28" value="Product ID" style="ellipse;whiteSpace=wrap;html=1;" vertex="1" parent="1">
          <mxGeometry x="210" y="80" width="80" height="40" as="geometry" />
        </mxCell>
        <mxCell id="bclAgqdTE26W3hW6iXd6-29" value="Quantity" style="ellipse;whiteSpace=wrap;html=1;" vertex="1" parent="1">
          <mxGeometry x="410" y="80" width="80" height="40" as="geometry" />
        </mxCell>
        <mxCell id="bclAgqdTE26W3hW6iXd6-30" value="" style="endArrow=none;html=1;rounded=0;entryX=0.5;entryY=0;entryDx=0;entryDy=0;exitX=1;exitY=1;exitDx=0;exitDy=0;" edge="1" parent="1" source="bclAgqdTE26W3hW6iXd6-28" target="bclAgqdTE26W3hW6iXd6-3">
          <mxGeometry width="50" height="50" relative="1" as="geometry">
            <mxPoint x="198.28427124746213" y="214.14213562373106" as="sourcePoint" />
            <mxPoint x="250" y="230" as="targetPoint" />
          </mxGeometry>
        </mxCell>
        <mxCell id="bclAgqdTE26W3hW6iXd6-31" value="" style="endArrow=none;html=1;rounded=0;entryX=0.5;entryY=0;entryDx=0;entryDy=0;exitX=0.5;exitY=1;exitDx=0;exitDy=0;" edge="1" parent="1" source="bclAgqdTE26W3hW6iXd6-26" target="bclAgqdTE26W3hW6iXd6-3">
          <mxGeometry width="50" height="50" relative="1" as="geometry">
            <mxPoint x="288.28427124746213" y="124.14213562373106" as="sourcePoint" />
            <mxPoint x="410" y="210" as="targetPoint" />
          </mxGeometry>
        </mxCell>
        <mxCell id="bclAgqdTE26W3hW6iXd6-32" value="" style="endArrow=none;html=1;rounded=0;entryX=0.5;entryY=0;entryDx=0;entryDy=0;exitX=0.5;exitY=1;exitDx=0;exitDy=0;" edge="1" parent="1" source="bclAgqdTE26W3hW6iXd6-29" target="bclAgqdTE26W3hW6iXd6-3">
          <mxGeometry width="50" height="50" relative="1" as="geometry">
            <mxPoint x="360" y="130" as="sourcePoint" />
            <mxPoint x="410" y="210" as="targetPoint" />
          </mxGeometry>
        </mxCell>
        <mxCell id="bclAgqdTE26W3hW6iXd6-33" value="" style="endArrow=none;html=1;rounded=0;entryX=0.5;entryY=0;entryDx=0;entryDy=0;exitX=0;exitY=1;exitDx=0;exitDy=0;" edge="1" parent="1" source="bclAgqdTE26W3hW6iXd6-27" target="bclAgqdTE26W3hW6iXd6-3">
          <mxGeometry width="50" height="50" relative="1" as="geometry">
            <mxPoint x="460" y="130" as="sourcePoint" />
            <mxPoint x="410" y="210" as="targetPoint" />
          </mxGeometry>
        </mxCell>
        <mxCell id="bclAgqdTE26W3hW6iXd6-34" value="" style="endArrow=none;html=1;rounded=0;exitX=1;exitY=0.5;exitDx=0;exitDy=0;entryX=0;entryY=0.5;entryDx=0;entryDy=0;" edge="1" parent="1" source="bclAgqdTE26W3hW6iXd6-1" target="bclAgqdTE26W3hW6iXd6-3">
          <mxGeometry width="50" height="50" relative="1" as="geometry">
            <mxPoint x="198.28427124746213" y="245.85786437626894" as="sourcePoint" />
            <mxPoint x="250" y="230" as="targetPoint" />
          </mxGeometry>
        </mxCell>
        <mxCell id="bclAgqdTE26W3hW6iXd6-35" value="n" style="text;html=1;align=center;verticalAlign=middle;resizable=0;points=[];autosize=1;strokeColor=none;fillColor=none;" vertex="1" parent="1">
          <mxGeometry x="330" y="200" width="20" height="20" as="geometry" />
        </mxCell>
        <mxCell id="bclAgqdTE26W3hW6iXd6-36" value="m" style="text;html=1;align=center;verticalAlign=middle;resizable=0;points=[];autosize=1;strokeColor=none;fillColor=none;" vertex="1" parent="1">
          <mxGeometry x="445" y="200" width="30" height="20" as="geometry" />
        </mxCell>
        <mxCell id="bclAgqdTE26W3hW6iXd6-49" value="Brand ID" style="ellipse;whiteSpace=wrap;html=1;" vertex="1" parent="1">
          <mxGeometry x="600" y="290" width="80" height="40" as="geometry" />
        </mxCell>
        <mxCell id="bclAgqdTE26W3hW6iXd6-50" value="" style="endArrow=none;html=1;rounded=0;entryX=0;entryY=0;entryDx=0;entryDy=0;exitX=1;exitY=0.5;exitDx=0;exitDy=0;" edge="1" parent="1" source="bclAgqdTE26W3hW6iXd6-4" target="bclAgqdTE26W3hW6iXd6-49">
          <mxGeometry width="50" height="50" relative="1" as="geometry">
            <mxPoint x="570" y="230.0000000000001" as="sourcePoint" />
            <mxPoint x="621.7157287525381" y="154.14213562373095" as="targetPoint" />
          </mxGeometry>
        </mxCell>
        <mxCell id="bclAgqdTE26W3hW6iXd6-53" value="Customers" style="rounded=0;whiteSpace=wrap;html=1;" vertex="1" parent="1">
          <mxGeometry x="240" y="400" width="80" height="40" as="geometry" />
        </mxCell>
        <mxCell id="bclAgqdTE26W3hW6iXd6-54" value="brands" style="rounded=0;whiteSpace=wrap;html=1;" vertex="1" parent="1">
          <mxGeometry x="480" y="400" width="80" height="40" as="geometry" />
        </mxCell>
        <mxCell id="bclAgqdTE26W3hW6iXd6-55" value="Likes" style="rhombus;whiteSpace=wrap;html=1;" vertex="1" parent="1">
          <mxGeometry x="360" y="400" width="80" height="40" as="geometry" />
        </mxCell>
        <mxCell id="bclAgqdTE26W3hW6iXd6-56" value="" style="endArrow=none;html=1;rounded=0;entryX=0;entryY=0.5;entryDx=0;entryDy=0;exitX=1;exitY=0.5;exitDx=0;exitDy=0;" edge="1" parent="1" source="bclAgqdTE26W3hW6iXd6-53" target="bclAgqdTE26W3hW6iXd6-55">
          <mxGeometry width="50" height="50" relative="1" as="geometry">
            <mxPoint x="530" y="270" as="sourcePoint" />
            <mxPoint x="581.7157287525324" y="285.85786437626643" as="targetPoint" />
          </mxGeometry>
        </mxCell>
        <mxCell id="bclAgqdTE26W3hW6iXd6-57" value="" style="endArrow=none;html=1;rounded=0;entryX=0;entryY=0.5;entryDx=0;entryDy=0;exitX=1;exitY=0.5;exitDx=0;exitDy=0;" edge="1" parent="1" source="bclAgqdTE26W3hW6iXd6-55" target="bclAgqdTE26W3hW6iXd6-54">
          <mxGeometry width="50" height="50" relative="1" as="geometry">
            <mxPoint x="330" y="430" as="sourcePoint" />
            <mxPoint x="370" y="430" as="targetPoint" />
          </mxGeometry>
        </mxCell>
        <mxCell id="bclAgqdTE26W3hW6iXd6-58" value="Customer ID" style="ellipse;whiteSpace=wrap;html=1;" vertex="1" parent="1">
          <mxGeometry x="210" y="480" width="80" height="40" as="geometry" />
        </mxCell>
        <mxCell id="bclAgqdTE26W3hW6iXd6-59" value="isLike" style="ellipse;whiteSpace=wrap;html=1;" vertex="1" parent="1">
          <mxGeometry x="310" y="480" width="80" height="40" as="geometry" />
        </mxCell>
        <mxCell id="bclAgqdTE26W3hW6iXd6-60" value="Brand ID" style="ellipse;whiteSpace=wrap;html=1;" vertex="1" parent="1">
          <mxGeometry x="510" y="480" width="80" height="40" as="geometry" />
        </mxCell>
        <mxCell id="bclAgqdTE26W3hW6iXd6-61" value="date" style="ellipse;whiteSpace=wrap;html=1;" vertex="1" parent="1">
          <mxGeometry x="410" y="480" width="80" height="40" as="geometry" />
        </mxCell>
        <mxCell id="bclAgqdTE26W3hW6iXd6-62" value="" style="endArrow=none;html=1;rounded=0;entryX=0.5;entryY=1;entryDx=0;entryDy=0;exitX=1;exitY=0;exitDx=0;exitDy=0;" edge="1" parent="1" source="bclAgqdTE26W3hW6iXd6-58" target="bclAgqdTE26W3hW6iXd6-55">
          <mxGeometry width="50" height="50" relative="1" as="geometry">
            <mxPoint x="330" y="430" as="sourcePoint" />
            <mxPoint x="370" y="430" as="targetPoint" />
          </mxGeometry>
        </mxCell>
        <mxCell id="bclAgqdTE26W3hW6iXd6-63" value="" style="endArrow=none;html=1;rounded=0;entryX=0.5;entryY=1;entryDx=0;entryDy=0;exitX=0.5;exitY=0;exitDx=0;exitDy=0;" edge="1" parent="1" source="bclAgqdTE26W3hW6iXd6-59" target="bclAgqdTE26W3hW6iXd6-55">
          <mxGeometry width="50" height="50" relative="1" as="geometry">
            <mxPoint x="288.2842712474619" y="495.85786437626916" as="sourcePoint" />
            <mxPoint x="410" y="450" as="targetPoint" />
          </mxGeometry>
        </mxCell>
        <mxCell id="bclAgqdTE26W3hW6iXd6-64" value="" style="endArrow=none;html=1;rounded=0;entryX=0.5;entryY=1;entryDx=0;entryDy=0;exitX=0.5;exitY=0;exitDx=0;exitDy=0;" edge="1" parent="1" source="bclAgqdTE26W3hW6iXd6-61" target="bclAgqdTE26W3hW6iXd6-55">
          <mxGeometry width="50" height="50" relative="1" as="geometry">
            <mxPoint x="360" y="490" as="sourcePoint" />
            <mxPoint x="410" y="450" as="targetPoint" />
          </mxGeometry>
        </mxCell>
        <mxCell id="bclAgqdTE26W3hW6iXd6-65" value="" style="endArrow=none;html=1;rounded=0;entryX=0.5;entryY=1;entryDx=0;entryDy=0;exitX=0;exitY=0;exitDx=0;exitDy=0;" edge="1" parent="1" source="bclAgqdTE26W3hW6iXd6-60" target="bclAgqdTE26W3hW6iXd6-55">
          <mxGeometry width="50" height="50" relative="1" as="geometry">
            <mxPoint x="460" y="490" as="sourcePoint" />
            <mxPoint x="410" y="450" as="targetPoint" />
          </mxGeometry>
        </mxCell>
        <mxCell id="bclAgqdTE26W3hW6iXd6-66" value="n" style="text;html=1;align=center;verticalAlign=middle;resizable=0;points=[];autosize=1;strokeColor=none;fillColor=none;" vertex="1" parent="1">
          <mxGeometry x="330" y="400" width="20" height="20" as="geometry" />
        </mxCell>
        <mxCell id="bclAgqdTE26W3hW6iXd6-67" value="m" style="text;html=1;align=center;verticalAlign=middle;resizable=0;points=[];autosize=1;strokeColor=none;fillColor=none;" vertex="1" parent="1">
          <mxGeometry x="445" y="400" width="30" height="20" as="geometry" />
        </mxCell>
        <mxCell id="bclAgqdTE26W3hW6iXd6-76" value="Brand ID" style="ellipse;whiteSpace=wrap;html=1;" vertex="1" parent="1">
          <mxGeometry x="600" y="370" width="80" height="40" as="geometry" />
        </mxCell>
        <mxCell id="bclAgqdTE26W3hW6iXd6-77" value="name" style="ellipse;whiteSpace=wrap;html=1;" vertex="1" parent="1">
          <mxGeometry x="600" y="430" width="80" height="40" as="geometry" />
        </mxCell>
        <mxCell id="bclAgqdTE26W3hW6iXd6-78" value="" style="endArrow=none;html=1;rounded=0;entryX=0;entryY=1;entryDx=0;entryDy=0;exitX=1;exitY=0.5;exitDx=0;exitDy=0;" edge="1" parent="1" source="bclAgqdTE26W3hW6iXd6-54" target="bclAgqdTE26W3hW6iXd6-76">
          <mxGeometry width="50" height="50" relative="1" as="geometry">
            <mxPoint x="531.7157287525381" y="495.85786437626905" as="sourcePoint" />
            <mxPoint x="410" y="450" as="targetPoint" />
          </mxGeometry>
        </mxCell>
        <mxCell id="bclAgqdTE26W3hW6iXd6-79" value="" style="endArrow=none;html=1;rounded=0;entryX=0;entryY=0;entryDx=0;entryDy=0;exitX=1;exitY=0.5;exitDx=0;exitDy=0;" edge="1" parent="1" source="bclAgqdTE26W3hW6iXd6-54" target="bclAgqdTE26W3hW6iXd6-77">
          <mxGeometry width="50" height="50" relative="1" as="geometry">
            <mxPoint x="570" y="430" as="sourcePoint" />
            <mxPoint x="621.7157287525381" y="414.14213562373095" as="targetPoint" />
          </mxGeometry>
        </mxCell>
        <mxCell id="bclAgqdTE26W3hW6iXd6-80" value="Customers" style="rounded=0;whiteSpace=wrap;html=1;" vertex="1" parent="1">
          <mxGeometry x="240" y="680" width="80" height="40" as="geometry" />
        </mxCell>
        <mxCell id="bclAgqdTE26W3hW6iXd6-81" value="Profiles" style="rounded=0;whiteSpace=wrap;html=1;" vertex="1" parent="1">
          <mxGeometry x="480" y="680" width="80" height="40" as="geometry" />
        </mxCell>
        <mxCell id="bclAgqdTE26W3hW6iXd6-83" value="" style="endArrow=none;html=1;rounded=0;entryX=1;entryY=0.5;entryDx=0;entryDy=0;exitX=0;exitY=0.5;exitDx=0;exitDy=0;" edge="1" parent="1" source="bclAgqdTE26W3hW6iXd6-81" target="bclAgqdTE26W3hW6iXd6-80">
          <mxGeometry width="50" height="50" relative="1" as="geometry">
            <mxPoint x="531.7157287525322" y="575.8578643762664" as="sourcePoint" />
            <mxPoint x="410" y="530" as="targetPoint" />
          </mxGeometry>
        </mxCell>
        <mxCell id="bclAgqdTE26W3hW6iXd6-84" value="Customer ID" style="ellipse;whiteSpace=wrap;html=1;" vertex="1" parent="1">
          <mxGeometry x="600" y="590" width="80" height="40" as="geometry" />
        </mxCell>
        <mxCell id="bclAgqdTE26W3hW6iXd6-85" value="height" style="ellipse;whiteSpace=wrap;html=1;" vertex="1" parent="1">
          <mxGeometry x="600" y="650" width="80" height="40" as="geometry" />
        </mxCell>
        <mxCell id="bclAgqdTE26W3hW6iXd6-86" value="age" style="ellipse;whiteSpace=wrap;html=1;" vertex="1" parent="1">
          <mxGeometry x="600" y="710" width="80" height="40" as="geometry" />
        </mxCell>
        <mxCell id="bclAgqdTE26W3hW6iXd6-87" value="weight" style="ellipse;whiteSpace=wrap;html=1;" vertex="1" parent="1">
          <mxGeometry x="600" y="770" width="80" height="40" as="geometry" />
        </mxCell>
        <mxCell id="bclAgqdTE26W3hW6iXd6-88" value="" style="endArrow=none;html=1;rounded=0;entryX=1;entryY=0.5;entryDx=0;entryDy=0;exitX=0;exitY=1;exitDx=0;exitDy=0;" edge="1" parent="1" source="bclAgqdTE26W3hW6iXd6-84" target="bclAgqdTE26W3hW6iXd6-81">
          <mxGeometry width="50" height="50" relative="1" as="geometry">
            <mxPoint x="531.7157287525379" y="555.8578643762689" as="sourcePoint" />
            <mxPoint x="410" y="510" as="targetPoint" />
          </mxGeometry>
        </mxCell>
        <mxCell id="bclAgqdTE26W3hW6iXd6-89" value="" style="endArrow=none;html=1;rounded=0;entryX=1;entryY=0.5;entryDx=0;entryDy=0;exitX=0;exitY=0.5;exitDx=0;exitDy=0;" edge="1" parent="1" source="bclAgqdTE26W3hW6iXd6-85" target="bclAgqdTE26W3hW6iXd6-81">
          <mxGeometry width="50" height="50" relative="1" as="geometry">
            <mxPoint x="621.7157287525379" y="634.142135623731" as="sourcePoint" />
            <mxPoint x="570" y="690" as="targetPoint" />
          </mxGeometry>
        </mxCell>
        <mxCell id="bclAgqdTE26W3hW6iXd6-90" value="" style="endArrow=none;html=1;rounded=0;entryX=1;entryY=0.5;entryDx=0;entryDy=0;exitX=0;exitY=0.5;exitDx=0;exitDy=0;" edge="1" parent="1" source="bclAgqdTE26W3hW6iXd6-86" target="bclAgqdTE26W3hW6iXd6-81">
          <mxGeometry width="50" height="50" relative="1" as="geometry">
            <mxPoint x="610" y="680" as="sourcePoint" />
            <mxPoint x="570" y="710" as="targetPoint" />
          </mxGeometry>
        </mxCell>
        <mxCell id="bclAgqdTE26W3hW6iXd6-91" value="" style="endArrow=none;html=1;rounded=0;entryX=1;entryY=0.5;entryDx=0;entryDy=0;exitX=0;exitY=0;exitDx=0;exitDy=0;" edge="1" parent="1" source="bclAgqdTE26W3hW6iXd6-87" target="bclAgqdTE26W3hW6iXd6-81">
          <mxGeometry width="50" height="50" relative="1" as="geometry">
            <mxPoint x="610" y="740" as="sourcePoint" />
            <mxPoint x="570" y="710" as="targetPoint" />
          </mxGeometry>
        </mxCell>
      </root>
    </mxGraphModel>
  </diagram>
</mxfile>
